HIERARCHY
ROOT Hips
{
	OFFSET 37.489101 -4.432526 98.902298
	CHANNELS 6 Xposition Yposition Zposition Xrotation Yrotation Zrotation
	JOINT spine
	{
		OFFSET 0.000000 -0.477353 8.301041
		CHANNELS 3 Xrotation Yrotation Zrotation
		JOINT spine1
		{
			OFFSET 0.000000 -0.000001 10.456497
			CHANNELS 3 Xrotation Yrotation Zrotation
			JOINT spine2
			{
				OFFSET 0.000000 -0.000002 10.019203
				CHANNELS 3 Xrotation Yrotation Zrotation
				JOINT Neck
				{
					OFFSET 0.000000 -1.226414 25.723503
					CHANNELS 3 Xrotation Yrotation Zrotation
					JOINT Head
					{
						OFFSET 0.000000 -0.000001 7.771744
						CHANNELS 3 Xrotation Yrotation Zrotation
						End Site
						{
							OFFSET 0.000000 6.203937 18.811996
						}
					}
				}
				JOINT RightShoulder
				{
					OFFSET -4.218800 0.587438 10.820000
					CHANNELS 3 Xrotation Yrotation Zrotation
					JOINT RightArm
					{
						OFFSET 0.000000 -0.000002 14.191406
						CHANNELS 3 Xrotation Yrotation Zrotation
						JOINT RightArmRoll
						{
							OFFSET 0.000000 -0.000001 7.164078
							CHANNELS 3 Xrotation Yrotation Zrotation
							JOINT RightForeArm
							{
								OFFSET 0.000000 -0.000003 20.866501
								CHANNELS 3 Xrotation Yrotation Zrotation
								JOINT RightForeArmRoll
								{
									OFFSET 0.000000 -0.000001 8.039215
									CHANNELS 3 Xrotation Yrotation Zrotation
									JOINT RightHand
									{
										OFFSET 0.000000 -0.000003 16.132996
										CHANNELS 3 Xrotation Yrotation Zrotation
										End Site
										{
											OFFSET 0.000000 0.000000 0.100006
										}
									}
								}
							}
						}
					}
				}
				JOINT LeftShoulder
				{
					OFFSET 4.218800 0.587438 10.820000
					CHANNELS 3 Xrotation Yrotation Zrotation
					JOINT LeftArm
					{
						OFFSET 0.000000 -0.000002 14.191406
						CHANNELS 3 Xrotation Yrotation Zrotation
						JOINT LeftArmRoll
						{
							OFFSET 0.000000 -0.000001 7.164078
							CHANNELS 3 Xrotation Yrotation Zrotation
							JOINT LeftForeArm
							{
								OFFSET 0.000000 -0.000003 20.866501
								CHANNELS 3 Xrotation Yrotation Zrotation
								JOINT LeftForeArmRoll
								{
									OFFSET 0.000000 -0.000001 8.039215
									CHANNELS 3 Xrotation Yrotation Zrotation
									JOINT LeftHand
									{
										OFFSET 0.000000 -0.000003 16.132996
										CHANNELS 3 Xrotation Yrotation Zrotation
										End Site
										{
											OFFSET 0.000000 0.000000 0.100006
										}
									}
								}
							}
						}
					}
				}
			}
		}
	}
	JOINT RightUpLeg
	{
		OFFSET -7.357731 1.131820 -1.349213
		CHANNELS 3 Xrotation Yrotation Zrotation
		JOINT RightUpLegRoll
		{
			OFFSET 0.000000 -0.000003 18.916801
			CHANNELS 3 Xrotation Yrotation Zrotation
			JOINT RightLeg
			{
				OFFSET 0.000000 0.000004 -23.425598
				CHANNELS 3 Xrotation Yrotation Zrotation
				JOINT RightLegRoll
				{
					OFFSET 0.000000 -0.000004 23.502296
					CHANNELS 3 Xrotation Yrotation Zrotation
					JOINT RightFoot
					{
						OFFSET 0.000000 -0.000003 19.561707
						CHANNELS 3 Xrotation Yrotation Zrotation
						JOINT RightToeBase
						{
							OFFSET 0.000000 -0.000003 16.352600
							CHANNELS 3 Xrotation Yrotation Zrotation
							End Site
							{
								OFFSET 0.006931 0.912836 7.919434
							}
						}
					}
				}
			}
		}
	}
	JOINT LeftUpLeg
	{
		OFFSET 7.357731 1.131820 -1.349213
		CHANNELS 3 Xrotation Yrotation Zrotation
		JOINT LeftUpLegRoll
		{
			OFFSET 0.000000 -0.000003 18.916901
			CHANNELS 3 Xrotation Yrotation Zrotation
			JOINT LeftLeg
			{
				OFFSET 0.000000 -0.000004 23.425507
				CHANNELS 3 Xrotation Yrotation Zrotation
				JOINT LeftLegRoll
				{
					OFFSET 0.000000 -0.000004 23.719498
					CHANNELS 3 Xrotation Yrotation Zrotation
					JOINT LeftFoot
					{
						OFFSET 0.000000 -0.000003 19.344406
						CHANNELS 3 Xrotation Yrotation Zrotation
						JOINT LeftToeBase
						{
							OFFSET 0.000000 -0.000003 16.352600
							CHANNELS 3 Xrotation Yrotation Zrotation
							End Site
							{
								OFFSET -0.031063 0.912835 7.919434
							}
						}
					}
				}
			}
		}
	}
}
MOTION
Frames: 12
Frame Time: 0.041667
37.084099 -3.570053 98.744110 -4.762446 -0.697161 0.686049 -1.276210 0.128462 0.074148 1.450244 0.247433 0.137092 3.095330 0.249057 0.134118 24.663963 -2.265070 -0.663926 -8.602601 1.755044 -0.840077 -4.671651 -73.267405 -6.782744 -62.487734 -131.707467 -102.439860 0.000001 0.000001 0.000000 88.971779 -6.539809 -0.540652 0.000005 -0.000002 -3.009197 -5.000231 -7.998783 0.000170 12.106437 64.893757 -12.916074 -59.586099 128.511457 86.543319 0.000008 -0.000010 -0.000001 92.501177 0.118836 5.802412 -0.000000 -0.000012 3.001461 -5.000233 7.998861 -0.000124 2.392375 -175.850610 1.749795 -179.999991 0.000005 -1.139995 173.887191 -4.008151 -0.707892 -0.000007 0.000001 0.060789 68.162672 6.897617 2.160752 25.456959 -7.355618 0.000001 2.066616 175.004241 -0.100462 -0.000005 -0.000005 -1.241020 -11.138375 3.171334 1.075373 0.000001 -0.000001 -0.150619 68.714551 -6.928140 -2.042148 25.456953 7.355613 -0.000000 
37.084599 -3.569443 98.746506 -4.763600 -0.695645 0.713104 -1.274256 0.127845 0.075342 1.454154 0.244871 0.138990 3.099239 0.246519 0.136046 24.616188 -2.268891 -0.680492 -8.576187 1.731246 -0.855661 -4.674221 -73.316685 -6.789637 -62.618116 -131.587337 -102.295313 0.000001 -0.000002 -0.000003 89.245553 -6.402687 -0.770399 0.000004 -0.000005 -3.009188 -5.000231 -7.998788 0.000171 12.174384 64.913298 -12.988573 -59.703503 128.399155 86.604920 0.000009 -0.000008 0.000003 92.612775 0.079936 5.859182 0.000000 -0.000016 3.001460 -5.000231 7.998864 -0.000126 2.397995 -175.853616 1.754047 -179.999991 0.000005 -1.139994 173.886822 -4.016107 -0.707770 -0.000007 0.000001 0.060798 68.162146 6.897613 2.160784 25.456962 -7.355618 -0.000000 2.056347 174.996208 -0.103182 -0.000004 -0.000005 -1.241080 -11.146770 3.169339 1.075411 0.000000 -0.000001 -0.150501 68.713711 -6.928159 -2.042503 25.456959 7.355613 -0.000001 
37.080601 -3.564113 98.744102 -4.764170 -0.694100 0.740806 -1.272513 0.127228 0.076518 1.457634 0.242342 0.140878 3.102719 0.244012 0.137965 24.569355 -2.274889 -0.697345 -8.549303 1.710691 -0.871751 -4.681360 -73.365958 -6.801499 -62.752527 -131.457468 -102.149147 0.000002 0.000000 0.000002 89.533309 -6.258992 -1.012627 0.000002 -0.000006 -3.009188 -5.000233 -7.998786 0.000171 12.240229 64.931487 -13.058960 -59.825764 128.283233 86.667055 0.000009 -0.000012 -0.000000 92.724394 0.040838 5.916028 0.000000 -0.000015 3.001459 -5.000235 7.998862 -0.000124 2.403282 -175.856635 1.758194 -179.999991 0.000005 -1.139995 173.886672 -4.023062 -0.708523 -0.000007 0.000001 0.060807 68.161723 6.897615 2.160811 25.456960 -7.355618 0.000001 2.045408 174.989187 -0.105700 -0.000004 -0.000005 -1.241140 -11.154860 3.167299 1.075403 0.000001 -0.000001 -0.150366 68.712878 -6.928177 -2.042960 25.456959 7.355612 0.000000 
37.082199 -3.566024 98.741707 -4.763949 -0.692604 0.769058 -1.271085 0.126654 0.077633 1.460493 0.239969 0.142692 3.105568 0.241661 0.139808 24.524581 -2.284373 -0.714220 -8.522842 1.694847 -0.888192 -4.694165 -73.414705 -6.819470 -62.889486 -131.319157 -102.005262 0.000000 0.000002 -0.000002 89.830313 -6.111059 -1.263255 0.000003 -0.000005 -3.009192 -5.000230 -7.998783 0.000172 12.303788 64.947798 -13.127141 -59.952416 128.166109 86.727673 0.000008 -0.000009 0.000001 92.833698 0.002621 5.971929 -0.000002 -0.000012 3.001448 -5.000230 7.998869 -0.000125 2.408024 -175.859654 1.762110 -179.999991 0.000005 -1.139994 173.886781 -4.031023 -0.708369 -0.000007 0.000000 0.060816 68.161415 6.897627 2.160833 25.456957 -7.355618 0.000001 2.033698 174.981141 -0.107965 -0.000004 -0.000004 -1.241190 -11.162848 3.165210 1.075370 0.000001 -0.000001 -0.150218 68.712038 -6.928195 -2.043317 25.456957 7.355614 0.000000 
37.077400 -3.569952 98.741409 -4.762759 -0.691236 0.797759 -1.270062 0.126170 0.078647 1.462533 0.237876 0.144368 3.107608 0.239588 0.141508 24.483001 -2.298665 -0.730830 -8.497717 1.685186 -0.904824 -4.713670 -73.462305 -6.844626 -63.029710 -131.172868 -101.870591 0.000000 0.000003 0.000001 90.131771 -5.960751 -1.518239 0.000006 -0.000004 -3.009191 -5.000233 -7.998786 0.000172 12.364754 64.961574 -13.192865 -60.078986 128.052523 86.779486 0.000008 -0.000010 0.000001 92.938405 -0.033670 6.024858 0.000003 -0.000013 3.001450 -5.000234 7.998860 -0.000125 2.411988 -175.862659 1.765721 -179.999991 0.000005 -1.139994 173.887095 -4.037980 -0.708094 -0.000007 0.000000 0.060825 68.161313 6.897656 2.160845 25.456962 -7.355618 0.000000 2.021104 174.974120 -0.109779 -0.000005 -0.000004 -1.241240 -11.170338 3.163088 1.075297 0.000002 -0.000001 -0.150060 68.711191 -6.928177 -2.043765 25.456959 7.355613 0.000001 
37.071400 -3.567884 98.739311 -4.760384 -0.690075 0.826811 -1.269546 0.125821 0.079518 1.463573 0.236189 0.145840 3.108658 0.237919 0.143000 24.445641 -2.319071 -0.746912 -8.474825 1.683170 -0.921503 -4.741043 -73.508320 -6.878199 -63.171839 -131.020049 -101.749232 0.000000 0.000003 0.000003 90.432770 -5.810066 -1.773345 0.000002 -0.000002 -3.009188 -5.000233 -7.998784 0.000171 12.422891 64.972209 -13.256000 -60.203664 127.945385 86.818958 0.000011 -0.000008 0.000002 93.036261 -0.067004 6.073780 0.000001 -0.000011 3.001441 -5.000233 7.998863 -0.000125 2.414963 -175.865664 1.768920 -179.999991 0.000005 -1.139994 173.887641 -4.044952 -0.708799 -0.000007 0.000000 0.060833 68.161313 6.897657 2.160945 25.456959 -7.355618 0.000000 2.007501 174.967071 -0.111052 -0.000004 -0.000005 -1.241290 -11.177325 3.160922 1.075197 0.000001 -0.000001 -0.149894 68.710241 -6.928189 -2.044028 25.456957 7.355614 -0.000000 
37.073200 -3.569854 98.739403 -4.756622 -0.689195 0.856114 -1.269624 0.125652 0.080204 1.463432 0.235031 0.147044 3.108507 0.236776 0.144218 24.413526 -2.346934 -0.762178 -8.455098 1.690259 -0.938061 -4.777361 -73.552224 -6.921317 -63.314809 -130.862422 -101.645393 0.000000 0.000001 0.000001 90.728394 -5.660687 -2.024486 0.000003 -0.000003 -3.009192 -5.000232 -7.998784 0.000173 12.477969 64.979223 -13.316401 -60.324941 127.847768 86.842693 0.000005 -0.000011 0.000003 93.124917 -0.096452 6.117629 -0.000002 -0.000014 3.001439 -5.000230 7.998864 -0.000126 2.416720 -175.868656 1.771611 -179.999991 0.000005 -1.139994 173.888379 -4.051913 -0.708492 -0.000007 0.000001 0.060842 68.161627 6.897644 2.160924 25.456962 -7.355618 0.000000 1.992795 174.961047 -0.111625 -0.000004 -0.000005 -1.241320 -11.183713 3.158713 1.075070 0.000001 -0.000001 -0.149723 68.709190 -6.928193 -2.044294 25.456959 7.355613 -0.000000 
37.078999 -3.571372 98.743607 -4.751284 -0.688677 0.885570 -1.270383 0.125708 0.080664 1.461903 0.234528 0.147917 3.106976 0.236282 0.145098 24.387885 -2.383562 -0.776347 -8.439419 1.707935 -0.954362 -4.823734 -73.593594 -6.975129 -63.459568 -130.700806 -101.566190 0.000004 0.000003 0.000002 91.013603 -5.514003 -2.267192 0.000004 -0.000005 -3.009193 -5.000232 -7.998782 0.000171 12.529809 64.982140 -13.373954 -60.438896 127.763743 86.844332 0.000009 -0.000010 -0.000003 93.202118 -0.120977 6.153375 0.000000 -0.000017 3.001438 -5.000229 7.998858 -0.000125 2.417056 -175.870664 1.773730 -179.999991 0.000005 -1.139995 173.889376 -4.056892 -0.708952 -0.000007 0.000000 0.060851 68.162057 6.897679 2.160903 25.456959 -7.355618 0.000001 1.976869 174.955992 -0.111374 -0.000005 -0.000004 -1.241360 -11.189396 3.156454 1.074920 0.000001 -0.000001 -0.149551 68.708138 -6.928200 -2.044462 25.456959 7.355614 -0.000001 
37.072701 -3.566483 98.740601 -4.744174 -0.688595 0.915080 -1.271932 0.126036 0.080857 1.458813 0.234802 0.148393 3.103887 0.236563 0.145570 24.369755 -2.430284 -0.789148 -8.428709 1.737659 -0.970247 -4.881244 -73.631802 -7.040784 -63.606021 -130.536499 -101.517054 0.000001 0.000001 -0.000003 91.283211 -5.371385 -2.496804 0.000002 -0.000005 -3.009190 -5.000230 -7.998783 0.000174 12.578003 64.980159 -13.428329 -60.543637 127.696247 86.820194 0.000007 -0.000007 0.000001 93.265618 -0.139601 6.181987 0.000001 -0.000013 3.001428 -5.000231 7.998864 -0.000126 2.415726 -175.872658 1.775150 -179.999991 0.000005 -1.139994 173.890606 -4.061873 -0.708385 -0.000007 0.000000 0.060860 68.162597 6.897720 2.160878 25.456960 -7.355617 0.000001 1.959615 174.950938 -0.110207 -0.000005 -0.000005 -1.241380 -11.194078 3.154157 1.074743 0.000002 -0.000001 -0.149381 68.706970 -6.928199 -2.044634 25.456953 7.355616 -0.000001 
37.061798 -3.566472 98.737701 -4.735074 -0.689026 0.944549 -1.274353 0.126680 0.080742 1.453963 0.235980 0.148409 3.099037 0.237741 0.145572 24.360068 -2.488422 -0.800293 -8.423870 1.780900 -0.985546 -4.950951 -73.666295 -7.119369 -63.753225 -130.371468 -101.502212 -0.000002 0.000001 -0.000001 91.532157 -5.233841 -2.708971 0.000005 -0.000003 -3.009190 -5.000233 -7.998791 0.000169 12.622427 64.972892 -13.479492 -60.637313 127.648217 86.766400 0.000010 -0.000011 0.000002 93.312952 -0.151294 6.200388 -0.000003 -0.000012 3.001430 -5.000231 7.998863 -0.000124 2.412521 -175.874653 1.775755 -179.999991 0.000005 -1.139994 173.892054 -4.065863 -0.708707 -0.000007 0.000001 0.060869 68.163437 6.897714 2.160925 25.456964 -7.355618 -0.000000 1.940926 174.946881 -0.107968 -0.000005 -0.000004 -1.241400 -11.197858 3.151818 1.074550 0.000002 -0.000001 -0.149215 68.705727 -6.928225 -2.044517 25.456957 7.355615 -0.000000 
37.065300 -3.572943 98.738907 -4.723363 -0.689896 0.975008 -1.277761 0.127623 0.080276 1.447143 0.238067 0.147914 3.092218 0.239822 0.145052 24.359503 -2.560236 -0.809952 -8.425829 1.840354 -1.000681 -5.036168 -73.698595 -7.214621 -63.902198 -130.196164 -101.518796 -0.000000 -0.000000 0.000001 91.771842 -5.094128 -2.915176 0.000004 -0.000005 -3.009189 -5.000230 -7.998786 0.000172 12.661814 64.959149 -13.526221 -60.718763 127.617358 86.681733 0.000008 -0.000009 0.000001 93.345415 -0.157088 6.209599 0.000000 -0.000013 3.001430 -5.000234 7.998857 -0.000126 2.406912 -175.876633 1.775418 -179.999991 0.000005 -1.139994 173.893775 -4.069857 -0.709011 -0.000007 0.000001 0.060878 68.164489 6.897727 2.160960 25.456957 -7.355618 0.000000 1.920156 174.943821 -0.104791 -0.000005 -0.000005 -1.241410 -11.200237 3.149625 1.074293 0.000002 -0.000001 -0.149015 68.703705 -6.928208 -2.044539 25.456957 7.355613 -0.000001 
37.068298 -3.574326 98.795097 -4.708810 -0.691061 1.007339 -1.282137 0.128802 0.079476 1.438402 0.240926 0.146946 3.083478 0.242669 0.144050 24.367070 -2.645837 -0.818590 -8.434193 1.916276 -1.016145 -5.138050 -73.730267 -7.327909 -64.057332 -130.001081 -101.562461 0.000003 0.000001 0.000000 92.016623 -4.945065 -3.125909 0.000001 -0.000007 -3.009191 -5.000233 -7.998782 0.000171 12.695619 64.938946 -13.567903 -60.790992 127.597605 86.571773 0.000010 -0.000011 0.000003 93.366261 -0.158770 6.213665 -0.000001 -0.000016 3.001418 -5.000234 7.998861 -0.000124 2.398730 -175.878601 1.774147 -179.999991 0.000005 -1.139995 173.895783 -4.071855 -0.708082 -0.000007 0.000001 0.060887 68.165746 6.897715 2.160980 25.456957 -7.355617 0.000000 1.896957 174.941758 -0.100921 -0.000004 -0.000005 -1.241430 -11.200918 3.147715 1.073926 0.000001 -0.000001 -0.148746 68.700426 -6.928178 -2.044342 25.456952 7.355613 -0.000000 
